<?xml version="1.0" encoding="UTF-8"?>
<svg id="_レイヤー_1" data-name="レイヤー 1" xmlns="http://www.w3.org/2000/svg" viewBox="0 0 224.39 121.46">
  <defs>
    <style>
      .cls-1 {
        font-family: KozGoPr6N-Regular-83pv-RKSJ-H, 'Kozuka Gothic Pr6N';
        font-size: 12px;
      }

      .cls-1, .cls-2 {
        fill: #231815;
      }

      .cls-2, .cls-3 {
        stroke: #231815;
        stroke-miterlimit: 10;
      }

      .cls-3 {
        fill: none;
      }
    </style>
  </defs>
  <path class="cls-3" d="M6.3,41.6C6.3,22.1,22.1,6.3,41.6,6.3s35.3,15.8,35.3,35.3"/>
  <path class="cls-3" d="M147.49,41.6c0,19.49-15.8,35.3-35.3,35.3-19.49,0-35.3-15.8-35.3-35.3"/>
  <path class="cls-3" d="M147.49,41.6c0-19.49,15.8-35.3,35.3-35.3s35.3,15.8,35.3,35.3"/>
  <path class="cls-3" d="M.5,41.6C.5,18.9,18.9.5,41.6.5s41.1,18.4,41.1,41.1"/>
  <path class="cls-3" d="M141.69,41.6c0-22.7,18.4-41.1,41.1-41.1s41.1,18.4,41.1,41.1"/>
  <path class="cls-3" d="M163.28,47.92s6.66-4.07,10.12-4.34,15.11,3.6,15.11,3.6c5.96,1.66,9.01,0,9.01,0-1.8-5.96-8.22-6.72-8.22-6.72-10.47-2.6-11.29-11.29-11.29-11.29-11.74-11.74-21.37.54-21.37.54,0,0-3.41,3.49-3.36,11.88.13,22.7-18.4,41.1-41.1,41.1-22.7,0-41.1-18.4-41.1-41.1"/>
  <path class="cls-2" d="M83.26,82.69s-8.24.55-13.61,22.04c0,0,25.71-9.55,26.09-22.04"/>
  <line class="cls-2" x1="96.2" y1="82.69" x2="82.69" y2="82.69"/>
  <circle class="cls-2" cx="172.94" cy="31.29" r="1.08"/>
  <text class="cls-1" transform="translate(22.8 117.39)"><tspan x="0" y="0" xml:space="preserve">c o n t e n t s   c r e a t i o n   c i r c l e</tspan></text>
</svg>